<?xml version="1.0" encoding="utf-8"?>
<!-- Generator: Adobe Illustrator 24.2.3, SVG Export Plug-In . SVG Version: 6.00 Build 0)  -->
<svg version="1.1" id="Слой_1" xmlns="http://www.w3.org/2000/svg" xmlns:xlink="http://www.w3.org/1999/xlink" x="0px" y="0px"
	 viewBox="0 0 2579.54 3648.2" style="enable-background:new 0 0 2579.54 3648.2;" xml:space="preserve">
<style type="text/css">
	.st0{opacity:0.22;}
	.st1{fill:#AFAFAF;}
	.st2{fill:#B0B0B0;}
	.st3{fill:#FFFFFF;}
	.st4{fill:#9B9A9A;stroke:#9B9A9A;stroke-width:7;stroke-miterlimit:10;}
	.st5{fill:#9B9A9A;}
	.st6{fill:none;}
	.st7{font-family:'StyreneAWeb-Thin';}
	.st8{font-size:125.9495px;}
	.st9{letter-spacing:-6;}
	.st10{font-family:'StyreneAWeb-ThinItalic';}
	.st11{font-family:'StyreneAWeb-Light';}
	.st12{font-family:'StyreneAWeb-LightItalic';}
	.st13{font-family:'StyreneAWeb-Regular';}
	.st14{font-family:'StyreneAWeb-Italic';}
	.st15{font-family:'StyreneAWeb-Medium';}
	.st16{font-family:'StyreneAWeb-MediumItalic';}
	.st17{font-family:'StyreneAWeb-Bold';}
	.st18{font-family:'StyreneAWeb-BoldItalic';}
	.st19{font-family:'StyreneAWeb-Black';}
	.st20{font-family:'StyreneAWeb-BlackItalic';}
	.st21{font-size:91.5997px;}
	.st22{letter-spacing:-4;}
</style>
<rect x="780.39" y="272.31" class="st6" width="2589.15" height="1986.03"/>
<text transform="matrix(1 0 0 1 780.3886 365.006)"><tspan x="0" y="0" class="st3 st7 st8 st9">У каждого шрифта есть </tspan><tspan x="0" y="125.95" class="st3 st10 st8 st9">автор, каждый шрифт </tspan><tspan x="0" y="251.9" class="st3 st11 st8 st9">нарисован в определённую </tspan><tspan x="0" y="377.85" class="st3 st12 st8 st9">эпоху в определённой </tspan><tspan x="0" y="503.8" class="st3 st13 st8 st9">стране. У каждого шрифта </tspan><tspan x="0" y="629.75" class="st3 st14 st8 st9">есть свои особенности, свой </tspan><tspan x="0" y="755.7" class="st3 st15 st8 st9">характер, свой голос. Один </tspan><tspan x="0" y="881.65" class="st3 st16 st8 st9">и тот же текст может </tspan><tspan x="0" y="1007.6" class="st3 st17 st8 st9">передавать совершенно </tspan><tspan x="0" y="1133.55" class="st3 st18 st8 st9">разную интонацию</tspan><tspan x="0" y="1259.5" class="st3 st19 st8 st9">в зависимости от того, </tspan><tspan x="0" y="1385.44" class="st3 st20 st8 st9">каким шрифтом он набран.</tspan></text>
<g>
	<path class="st3" d="M826.59,20.4c-8.43,0-12.65,1.98-12.65,5.95c0,1.9,0.83,3.35,2.48,4.34c1.57,1.08,3.97,1.74,7.19,1.98
		l12.15,0.99c5.13,0.33,9.69,1.03,13.7,2.11c4.01,1.08,7.73,2.67,11.16,4.77c3.43,2.11,6.06,5.02,7.87,8.74
		c1.82,3.72,2.73,8.14,2.73,13.27c0,5.54-1.16,10.31-3.47,14.32c-2.32,4.01-5.5,7.07-9.55,9.18c-4.05,2.11-8.33,3.62-12.83,4.53
		c-4.51,0.91-9.41,1.36-14.7,1.36c-5.13,0-10.03-0.5-14.69-1.49c-4.67-0.99-9.16-2.52-13.46-4.59c-4.3-2.07-7.96-4.98-10.97-8.74
		c-3.02-3.76-5.02-8.16-6.01-13.21h26.79c0.41,0.99,1.07,1.94,1.98,2.85c0.83,0.99,2.02,1.86,3.6,2.6c3.14,1.82,7.4,2.73,12.77,2.73
		c9.34,0,14.01-2.56,14.01-7.69c0-4.05-3.43-6.45-10.29-7.19c-4.13-0.5-8.23-0.87-12.28-1.12c-4.63-0.41-8.89-1.22-12.77-2.42
		c-3.89-1.2-7.5-2.87-10.85-5.02c-3.35-2.15-5.97-5.02-7.87-8.62c-1.9-3.6-2.85-7.75-2.85-12.46c0-5.04,1.18-9.42,3.53-13.15
		c2.36-3.72,5.52-6.53,9.49-8.43c3.97-1.9,8.08-3.29,12.34-4.15c4.26-0.87,8.74-1.3,13.46-1.3c4.88,0,9.47,0.41,13.76,1.24
		c4.3,0.83,8.47,2.15,12.53,3.97c4.05,1.82,7.5,4.46,10.35,7.94c2.85,3.47,4.82,7.57,5.89,12.28H843.7c-0.66-0.99-2.4-2.19-5.21-3.6
		C835.76,21.06,831.79,20.4,826.59,20.4z"/>
	<path class="st3" d="M871.23,24.12V2.29h89.04v21.82H928.4v66.22h-25.3V24.12H871.23z"/>
	<path class="st3" d="M1023.76,53.63v36.71h-27.03V53.38L958.03,2.29h32.61l20.59,27.9l20.46-27.9h28.52L1023.76,53.63z"/>
	<path class="st3" d="M1062.7,90.34V2.29h53.94c9.92,0,17.8,2.46,23.62,7.38c5.83,4.92,8.74,12.13,8.74,21.64
		c0,5.87-1.34,11.04-4.03,15.5c-2.69,4.46-6.68,7.77-11.97,9.92l19.1,33.61h-26.79l-17.24-30.63h-19.97v30.63H1062.7z
		 M1113.42,23.75h-25.3v14.88h25.3c6.36,0,9.55-2.48,9.55-7.44C1122.96,26.23,1119.78,23.75,1113.42,23.75z"/>
	<path class="st3" d="M1158.06,90.34V2.29h75.89v20.46h-50.47v11.53h30.01v20.96h-30.01v13.52h55.31v21.58H1158.06z"/>
	<path class="st3" d="M1313.19,90.34l-42.41-54.07v54.07h-24.93V2.29h28.4l35.96,47v-47h24.31v88.05H1313.19z"/>
	<path class="st3" d="M1346.92,90.34V2.29h75.89v20.46h-50.47v11.53h30.01v20.96h-30.01v13.52h55.31v21.58H1346.92z"/>
	<path class="st3" d="M1525.74,90.34l-5.08-12.4h-38.94l-5.08,12.4h-25.79l37.57-88.05h27.41l37.33,88.05H1525.74z M1490.4,57.1
		h21.58l-10.79-26.29L1490.4,57.1z"/>
</g>
<rect x="0" y="300.87" class="st6" width="993.02" height="132.5"/>
<text transform="matrix(1 0 0 1 -4.066638e-05 368.2852)" class="st3 st7 st21 st22">thin</text>
<rect x="0" y="424.09" class="st6" width="993.02" height="132.5"/>
<text transform="matrix(1 0 0 1 -4.066638e-05 491.5069)" class="st3 st7 st21 st22">thin italic</text>
<rect x="0" y="548.97" class="st6" width="993.02" height="132.5"/>
<text transform="matrix(1 0 0 1 -4.066638e-05 616.3858)" class="st3 st11 st21 st22">light</text>
<rect y="673.25" class="st6" width="993.02" height="132.5"/>
<text transform="matrix(1 0 0 1 -4.066638e-05 740.6671)" class="st3 st12 st21 st22">light italic</text>
<rect x="0" y="801.87" class="st6" width="993.02" height="132.5"/>
<text transform="matrix(1 0 0 1 -4.066638e-05 869.2862)" class="st3 st13 st21 st22">thin</text>
<rect x="0" y="928.13" class="st6" width="993.02" height="132.5"/>
<text transform="matrix(1 0 0 1 -4.066638e-05 995.5518)" class="st3 st14 st21 st22">italic</text>
<rect x="0" y="1054.77" class="st6" width="993.02" height="132.5"/>
<text transform="matrix(1 0 0 1 -4.066638e-05 1122.1865)" class="st3 st15 st21 st22">medium</text>
<rect y="1178.82" class="st6" width="993.02" height="132.5"/>
<text transform="matrix(1 0 0 1 -4.066638e-05 1246.2363)" class="st3 st16 st21 st22">medium italic</text>
<rect x="0" y="1302.87" class="st6" width="993.02" height="132.5"/>
<text transform="matrix(1 0 0 1 -4.066638e-05 1370.2871)" class="st3 st17 st21 st22">bold</text>
<rect x="0" y="1431.72" class="st6" width="993.02" height="132.5"/>
<text transform="matrix(1 0 0 1 -4.066638e-05 1499.1367)" class="st3 st18 st21 st22">bold italic</text>
<rect x="0" y="1556.91" class="st6" width="993.02" height="132.5"/>
<text transform="matrix(1 0 0 1 -4.066638e-05 1624.332)" class="st3 st19 st21 st22">black</text>
<rect y="1684.62" class="st6" width="993.02" height="132.5"/>
<text transform="matrix(1 0 0 1 -4.066638e-05 1752.0371)" class="st3 st20 st21 st22">black italic</text>
</svg>
