<?xml version="1.0" encoding="utf-8"?>
<!-- Generator: Adobe Illustrator 24.2.3, SVG Export Plug-In . SVG Version: 6.00 Build 0)  -->
<svg version="1.1" id="Слой_1" xmlns="http://www.w3.org/2000/svg" xmlns:xlink="http://www.w3.org/1999/xlink" x="0px" y="0px"
	 viewBox="0 0 2579.54 3648.2" style="enable-background:new 0 0 2579.54 3648.2;" xml:space="preserve">
<style type="text/css">
	.st0{opacity:0.22;}
	.st1{fill:#AFAFAF;}
	.st2{fill:#B0B0B0;}
	.st3{fill:#FFFFFF;}
	.st4{fill:#9B9A9A;stroke:#9B9A9A;stroke-width:7;stroke-miterlimit:10;}
	.st5{fill:#9B9A9A;}
</style>
<path class="st2" d="M660.75,0v244.87h-81.47c0,0-1.46-0.02-3.84,0h-0.94c-0.3,0-0.6,0-0.9,0.02c-0.61,0.01-1.25,0.02-1.93,0.04
	c-7.49,0.2-14.59,0.73-21.3,1.57c-58.95,7.37-88.42,38.97-88.42,94.8v178.6h-41.07V205.71h41.07v65.19
	c12.33-37.03,41.82-58.6,88.44-64.69V0H660.75z"/>
<path class="st2" d="M983.48,806.25v496.37c0,81.44,17.39,139.54,52.19,174.32c34.78,34.81,92.89,52.2,174.33,52.2h181.21v114.24
	H1190.3c-110.31,0-193.04-25.91-248.19-77.8c-55.15-51.86-82.73-132.96-82.73-243.26V806.25H659.03v542.25
	c0,98.86-21.29,172.71-63.8,221.59c-42.55,48.85-112.68,73.29-210.38,73.29H239.61v-101.74h131.44
	c66.66,0,113.52-16.38,140.54-49.15c27-32.76,40.53-83.63,40.53-152.61V897.09H358.31c-41.04,0-71.08,9.53-90.13,28.58
	c-19.06,19.06-28.57,49.1-28.57,90.13v97.82h220.92v62.64H239.61v365.38h-66.87l-1.28-365.38H0v-62.64h171.46V1008.1
	c0-115.76,60.45-173.66,181.35-173.66h199.31V425.93h106.91v268.04h200.35v-449.1h124.1v449.1h407.73v112.28H983.48z"/>
</svg>
