<?xml version="1.0" encoding="utf-8"?>
<!-- Generator: Adobe Illustrator 24.2.3, SVG Export Plug-In . SVG Version: 6.00 Build 0)  -->
<svg version="1.1" id="Слой_1" xmlns="http://www.w3.org/2000/svg" xmlns:xlink="http://www.w3.org/1999/xlink" x="0px" y="0px"
	 viewBox="0 0 2579.54 3648.2" style="enable-background:new 0 0 2579.54 3648.2;" xml:space="preserve">
<style type="text/css">
	.st0{opacity:0.22;}
	.st1{fill:#AFAFAF;}
	.st2{fill:#B0B0B0;}
	.st3{fill:#FFFFFF;}
	.st4{fill:#9B9A9A;stroke:#9B9A9A;stroke-width:7;stroke-miterlimit:10;}
	.st5{fill:#9B9A9A;}
	.st6{fill:none;}
	.st7{font-family:'StyreneAWeb-Thin';}
	.st8{font-size:110px;}
	.st9{letter-spacing:-5;}
	.st10{font-family:'StyreneAWeb-ThinItalic';}
	.st11{font-family:'StyreneAWeb-Light';}
	.st12{font-family:'StyreneAWeb-LightItalic';}
	.st13{font-family:'StyreneAWeb-Regular';}
	.st14{font-family:'StyreneAWeb-Italic';}
	.st15{font-family:'StyreneAWeb-Medium';}
	.st16{font-family:'StyreneAWeb-MediumItalic';}
	.st17{font-family:'StyreneAWeb-Bold';}
	.st18{font-family:'StyreneAWeb-BoldItalic';}
	.st19{font-family:'StyreneAWeb-Black';}
	.st20{font-family:'StyreneAWeb-BlackItalic';}
	.st21{font-size:80px;}
	.st22{letter-spacing:-4;}
</style>
<rect x="681.56" y="237.89" class="st6" width="2261.28" height="1734.53"/>
<text transform="matrix(1 0 0 1 681.5644 318.8536)"><tspan x="0" y="0" class="st3 st7 st8 st9">У каждого шрифта есть </tspan><tspan x="0" y="132" class="st3 st10 st8 st9">автор, каждый шрифт </tspan><tspan x="0" y="264" class="st3 st11 st8 st9">нарисован в определённую </tspan><tspan x="0" y="396" class="st3 st12 st8 st9">эпоху в определённой </tspan><tspan x="0" y="528" class="st3 st13 st8 st9">стране. У каждого шрифта </tspan><tspan x="0" y="660" class="st3 st14 st8 st9">есть свои особенности, свой </tspan><tspan x="0" y="792" class="st3 st15 st8 st9">характер, свой голос. Один </tspan><tspan x="0" y="924" class="st3 st16 st8 st9">и тот же текст может </tspan><tspan x="0" y="1056" class="st3 st17 st8 st9">передавать совершенно </tspan><tspan x="0" y="1188" class="st3 st18 st8 st9">разную интонацию</tspan><tspan x="0" y="1320" class="st3 st19 st8 st9">в зависимости от того, </tspan><tspan x="0" y="1452" class="st3 st20 st8 st9">каким шрифтом он набран.</tspan></text>
<g>
	<path class="st3" d="M721.91,17.89c-7.36,0-11.05,1.73-11.05,5.2c0,1.66,0.72,2.92,2.17,3.79c1.37,0.94,3.47,1.52,6.28,1.73
		l10.61,0.87c4.48,0.29,8.46,0.9,11.97,1.84c3.5,0.94,6.75,2.33,9.75,4.17c3,1.84,5.29,4.39,6.88,7.64
		c1.59,3.25,2.38,7.11,2.38,11.59c0,4.84-1.01,9.01-3.03,12.51c-2.02,3.5-4.8,6.17-8.34,8.01c-3.54,1.84-7.28,3.16-11.21,3.95
		c-3.94,0.79-8.21,1.19-12.83,1.19c-4.48,0-8.76-0.43-12.83-1.3c-4.08-0.87-8-2.2-11.75-4.01c-3.75-1.8-6.95-4.35-9.58-7.64
		c-2.64-3.28-4.39-7.13-5.25-11.53h23.39c0.36,0.87,0.94,1.7,1.73,2.49c0.72,0.87,1.77,1.62,3.14,2.27
		c2.74,1.59,6.46,2.38,11.16,2.38c8.16,0,12.24-2.24,12.24-6.72c0-3.54-3-5.63-8.99-6.28c-3.61-0.43-7.19-0.76-10.72-0.97
		c-4.04-0.36-7.76-1.06-11.16-2.11c-3.39-1.05-6.55-2.51-9.48-4.39c-2.92-1.88-5.22-4.39-6.88-7.53c-1.66-3.14-2.49-6.77-2.49-10.88
		c0-4.4,1.03-8.23,3.09-11.48c2.06-3.25,4.82-5.7,8.29-7.36c3.47-1.66,7.06-2.87,10.78-3.63c3.72-0.76,7.64-1.14,11.75-1.14
		c4.26,0,8.27,0.36,12.02,1.08c3.75,0.72,7.4,1.88,10.94,3.47c3.54,1.59,6.55,3.9,9.04,6.93c2.49,3.03,4.21,6.61,5.14,10.72h-22.2
		c-0.58-0.87-2.09-1.91-4.55-3.14C729.93,18.46,726.46,17.89,721.91,17.89z"/>
	<path class="st3" d="M760.9,21.13V2.07h77.76v19.06h-27.83v57.84h-22.09V21.13H760.9z"/>
	<path class="st3" d="M894.12,46.91v32.06H870.5V46.69L836.71,2.07h28.48l17.98,24.37l17.87-24.37h24.91L894.12,46.91z"/>
	<path class="st3" d="M928.12,78.97V2.07h47.11c8.66,0,15.54,2.15,20.63,6.44c5.09,4.3,7.64,10.6,7.64,18.9
		c0,5.13-1.17,9.64-3.52,13.54c-2.35,3.9-5.83,6.79-10.45,8.67l16.68,29.35h-23.39l-15.05-26.75h-17.44v26.75H928.12z M972.42,20.81
		h-22.09v13h22.09c5.56,0,8.34-2.17,8.34-6.5C980.76,22.98,977.98,20.81,972.42,20.81z"/>
	<path class="st3" d="M1011.41,78.97V2.07h66.28v17.87h-44.08v10.07h26.21v18.3h-26.21v11.81h48.3v18.84H1011.41z"/>
	<path class="st3" d="M1146.9,78.97l-37.04-47.22v47.22h-21.77V2.07h24.8l31.41,41.05V2.07h21.23v76.9H1146.9z"/>
	<path class="st3" d="M1176.35,78.97V2.07h66.28v17.87h-44.08v10.07h26.21v18.3h-26.21v11.81h48.3v18.84H1176.35z"/>
	<path class="st3" d="M1332.53,78.97l-4.44-10.83h-34.01l-4.44,10.83h-22.53l32.82-76.9h23.94l32.6,76.9H1332.53z M1301.66,49.94
		h18.85l-9.42-22.96L1301.66,49.94z"/>
</g>
<g>
	<rect y="262.84" class="st6" width="867.27" height="115.72"/>
	<text transform="matrix(1 0 0 1 6.917555e-04 321.7179)" class="st3 st7 st21 st22">thin</text>
	<rect y="394.52" class="st6" width="867.27" height="115.72"/>
	<text transform="matrix(1 0 0 1 6.917555e-04 453.4044)" class="st3 st7 st21 st22">thin italic</text>
	<rect y="526.21" class="st6" width="867.27" height="115.72"/>
	<text transform="matrix(1 0 0 1 6.917555e-04 585.0909)" class="st3 st11 st21 st22">light</text>
	<rect y="657.9" class="st6" width="867.27" height="115.72"/>
	<text transform="matrix(1 0 0 1 6.917555e-04 716.7774)" class="st3 st12 st21 st22">light italic</text>
	<rect y="789.58" class="st6" width="867.27" height="115.72"/>
	<text transform="matrix(1 0 0 1 6.917555e-04 848.463)" class="st3 st13 st21 st22">thin</text>
	<rect y="921.27" class="st6" width="867.27" height="115.72"/>
	<text transform="matrix(1 0 0 1 6.917555e-04 980.1495)" class="st3 st14 st21 st22">italic</text>
	<rect y="1052.96" class="st6" width="867.27" height="115.72"/>
	<text transform="matrix(1 0 0 1 6.917555e-04 1111.8361)" class="st3 st15 st21 st22">medium</text>
	<rect y="1184.64" class="st6" width="867.27" height="115.72"/>
	<text transform="matrix(1 0 0 1 6.917555e-04 1243.5226)" class="st3 st16 st21 st22">medium italic</text>
	<rect y="1316.33" class="st6" width="867.27" height="115.72"/>
	<text transform="matrix(1 0 0 1 6.917555e-04 1375.2081)" class="st3 st17 st21 st22">bold</text>
	<rect y="1448.01" class="st6" width="867.27" height="115.72"/>
	<text transform="matrix(1 0 0 1 6.917555e-04 1506.8947)" class="st3 st18 st21 st22">bold italic</text>
	<rect y="1579.7" class="st6" width="867.27" height="115.72"/>
	<text transform="matrix(1 0 0 1 6.917555e-04 1638.5812)" class="st3 st19 st21 st22">black</text>
	<rect y="1711.39" class="st6" width="867.27" height="115.72"/>
	<text transform="matrix(1 0 0 1 6.917555e-04 1770.2677)" class="st3 st20 st21 st22">black italic</text>
</g>
</svg>
