<?xml version="1.0" encoding="utf-8"?>
<!-- Generator: Adobe Illustrator 24.2.3, SVG Export Plug-In . SVG Version: 6.00 Build 0)  -->
<svg version="1.1" id="Слой_1" xmlns="http://www.w3.org/2000/svg" xmlns:xlink="http://www.w3.org/1999/xlink" x="0px" y="0px"
	 viewBox="0 0 2579.54 3648.2" style="enable-background:new 0 0 2579.54 3648.2;" xml:space="preserve">
<style type="text/css">
	.st0{opacity:0.22;}
	.st1{fill:#AFAFAF;}
	.st2{fill:#B0B0B0;}
	.st3{fill:#FFFFFF;}
	.st4{fill:#9B9A9A;stroke:#9B9A9A;stroke-width:7;stroke-miterlimit:10;}
	.st5{fill:#9B9A9A;}
</style>
<g class="st0">
	<path class="st1" d="M660.56,356.5c-40.33,0-78.33,2.71-113.94,8.07c-35.64,5.39-72.28,15.12-109.91,29.24
		c-37.65,14.12-67.56,35.98-89.74,65.54c-22.18,29.59-33.27,65.89-33.27,108.9c0,115.64,91.41,184.21,274.26,205.7
		c0,0,125.01-135.47,281.97-156.75c156.96-21.28,254.77,245.48,340.16,314.05c85.36,68.56,128.06,168.73,128.06,300.48
		c0,76.63-17.49,143.87-52.43,201.66c-34.98,57.82-81.67,102.53-140.16,134.11c-58.48,31.6-120.34,54.8-185.53,69.57
		c-65.23,14.78-133.44,22.18-204.69,22.18c-169.4,0-314.94-35.29-436.6-105.87c-121.69-70.58-73.69-151.17-119.38-300.4h209.73
		c77.95,170.75,105.58,226.79,346.25,226.79c41.66,0,83-3.69,124.02-11.09c40.99-7.37,82.33-19.16,124.02-35.29
		c41.66-16.13,75.28-40.65,100.83-73.61c25.52-32.93,38.32-72.25,38.32-117.97c0-45.69-7.4-83.69-22.18-113.94
		c-14.81-30.25-38-53.76-69.57-70.58c-31.6-16.79-61.19-28.89-88.73-36.3c-27.57-7.37-64.22-14.43-109.91-21.17l-282.33-30.25
		c-130.42-12.1-238.31-51.74-323.67-118.98C160.75,783.37,0,1014.87,0,893.87c0-91.41,147.33-493.32,205.81-554.51
		c58.48-61.16,126.7-103.51,204.69-127.05C488.45,188.81,524.86,0,613.6,0c157.3,0,341.39,207.62,458.36,268.78
		c116.96,61.19,326.39,190.63,364.04,327.76h-203.68C1162.4,456.73,883.71,356.5,660.56,356.5z"/>
</g>
</svg>
