<?xml version="1.0" encoding="utf-8"?>
<!-- Generator: Adobe Illustrator 24.2.3, SVG Export Plug-In . SVG Version: 6.00 Build 0)  -->
<svg version="1.1" id="Слой_1" xmlns="http://www.w3.org/2000/svg" xmlns:xlink="http://www.w3.org/1999/xlink" x="0px" y="0px"
	 viewBox="0 0 2579.54 3648.2" style="enable-background:new 0 0 2579.54 3648.2;" xml:space="preserve">
<style type="text/css">
	.st0{opacity:0.22;}
	.st1{fill:#AFAFAF;}
	.st2{fill:#B0B0B0;}
	.st3{fill:#FFFFFF;}
	.st4{fill:#9B9A9A;stroke:#9B9A9A;stroke-width:7;stroke-miterlimit:10;}
	.st5{fill:#9B9A9A;}
</style>
<g>
	<g>
		<path class="st3" d="M481.69,553.99l-41.26-95.74h-263.1l-41.25,95.74H2.97L245.05,0.56H380.5l241.3,553.44H481.69z
			 M224.82,347.72h168.13l-84.07-195.38L224.82,347.72z"/>
		<path class="st3" d="M934.71,553.99v-59.16c-10.9,21.28-28.8,37.88-53.71,49.82c-24.91,11.93-50.34,17.9-76.28,17.9
			c-56.57,0-101.2-20.63-133.89-61.89c-32.69-41.25-49.04-90.68-49.04-148.28c0-58.64,16.6-108.2,49.82-148.68
			c33.2-40.48,77.84-60.72,133.88-60.72c49.3,0,88.22,16.1,116.76,48.26c5.71,7.28,9.34,12.46,10.9,15.57v-56.05h126.1v403.21
			H934.71z M934.71,352.39c0-29.06-8.18-53.32-24.52-72.78c-16.35-19.46-38.8-29.19-67.33-29.19c-20.24,0-38.28,5.59-54.1,16.73
			c-15.83,11.17-26.6,26.08-32.31,44.76c-4.67,12.46-7,25.95-7,40.48c0,14.53,2.33,28.02,7,40.48c5.71,18.68,16.6,33.6,32.7,44.75
			c16.08,11.16,33.98,16.73,53.71,16.73c28.02,0,50.33-9.85,66.94-29.58C926.4,405.06,934.71,380.94,934.71,352.39z"/>
		<line class="st4" x1="2.97" y1="619.68" x2="1059.25" y2="619.68"/>
		<polygon class="st4" points="2.97,619.81 30.77,627.42 30.77,611.95 		"/>
		<polygon class="st4" points="1059.25,619.68 1031.45,627.29 1031.45,611.82 		"/>
		<g>
			<path class="st5" d="M1103.45,528.78c0,1.31,0.11,2.59,0.32,3.82c0.21,1.23,0.57,2.52,1.08,3.86c0.51,1.34,1.31,2.42,2.39,3.24
				s2.38,1.23,3.88,1.23c4.09,0,6.65-3.17,7.68-9.52c0.48-4.32,0.87-7.74,1.17-10.26c1.32-13.74,7.89-20.61,19.69-20.61
				c3.61,0,6.77,0.74,9.48,2.22c2.71,1.48,4.8,3.46,6.28,5.95c1.48,2.49,2.54,5.12,3.21,7.88c0.66,2.76,0.99,5.68,0.99,8.74
				c0,7.06-1.58,13.16-4.74,18.31c-3.16,5.15-8.17,8.59-15.04,10.35v-11.74c2.71-1.09,4.79-2.79,6.23-5.09
				c2.17-2.79,3.25-6.73,3.25-11.82c0-1.42-0.12-2.85-0.36-4.27c-0.24-1.42-0.66-2.87-1.26-4.35c-0.6-1.48-1.52-2.67-2.75-3.57
				c-1.23-0.9-2.72-1.36-4.47-1.36c-3.07,0-5.22,0.89-6.46,2.67c-1.23,1.78-2.06,4.26-2.48,7.43l-1.17,10.35
				c-0.54,5.64-2.38,10.36-5.51,14.16c-3.13,3.8-7.59,5.71-13.36,5.71c-3.31,0-6.2-0.71-8.67-2.13c-2.47-1.42-4.38-3.31-5.73-5.67
				c-1.35-2.35-2.35-4.83-2.98-7.43c-0.63-2.6-0.95-5.3-0.95-8.09c0-11.99,3.85-20.14,11.56-24.47c2.17-1.2,4.24-2,6.23-2.38v11.25
				c-2.65,1.37-4.56,3.49-5.73,6.36C1104.04,522.42,1103.45,525.5,1103.45,528.78z"/>
			<path class="st5" d="M1148.16,460.88h10.29v11.49c0,9.58-4.97,14.37-14.9,14.37h-20.95v11.41h-9.84v-11.41h-18.42v-10.51h18.42
				v-15.35h9.84v15.35h17.43c3.01,0,5.12-0.55,6.32-1.64c1.2-1.09,1.81-3.01,1.81-5.75V460.88z"/>
			<path class="st5" d="M1112.76,413.1l64.93,25.62v10.51l-20.05-7.88l-44.88,18.72v-11.82l31.07-12.23l-31.07-12.23V413.1z"/>
			<path class="st5" d="M1134.43,398.81h24.02v10.43h-45.69v-10.43h7.68c-2.77-1.09-4.79-2.86-6.05-5.3
				c-1.26-2.43-1.9-5.16-1.9-8.17v-9.69h11.47v11.08c0,3.94,0.74,6.94,2.21,8.99C1127.64,397.79,1130.4,398.81,1134.43,398.81z"/>
			<path class="st5" d="M1111.58,351.85c0-6.68,2.3-11.97,6.91-15.89c4.61-3.91,10.52-5.87,17.75-5.87h1.26v33.01
				c3.61-0.16,6.61-1.4,8.99-3.69c2.38-2.3,3.57-5.09,3.57-8.37c0-1.7-0.21-3.12-0.63-4.27c-0.78-2.63-2.23-4.57-4.33-5.83v-10.35
				c2.95,0.44,5.54,1.74,7.77,3.9c2.23,2.16,3.94,4.67,5.15,7.51c1.08,2.52,1.63,5.53,1.63,9.03c0,6.57-2.24,11.97-6.73,16.22
				c-4.48,4.24-10.25,6.36-17.29,6.36c-7.1,0-12.88-2.04-17.34-6.12C1113.81,363.42,1111.58,358.2,1111.58,351.85z M1120.52,351.85
				c0,2.74,0.78,5.06,2.35,6.98c1.57,1.92,3.79,3.23,6.68,3.94V341.1c-2.89,0.77-5.12,2.08-6.68,3.94
				C1121.3,346.9,1120.52,349.17,1120.52,351.85z"/>
			<path class="st5" d="M1134.07,313.26h24.38v10.43h-45.69v-10.43h7.68c-2.65-1.31-4.76-3.23-6.32-5.75
				c-1.56-2.52-2.35-5.2-2.35-8.05c0-5.31,1.9-9.52,5.69-12.64c3.79-3.12,8.58-4.68,14.36-4.68h26.64v10.59h-24.38
				c-3.61,0-6.52,0.89-8.72,2.67c-2.2,1.78-3.3,4.26-3.3,7.43c0,3.18,1.11,5.71,3.34,7.59
				C1127.63,312.32,1130.52,313.26,1134.07,313.26z"/>
			<path class="st5" d="M1111.58,254.23c0-6.68,2.3-11.97,6.91-15.89c4.61-3.91,10.52-5.87,17.75-5.87h1.26v33.01
				c3.61-0.16,6.61-1.4,8.99-3.69c2.38-2.3,3.57-5.09,3.57-8.37c0-1.7-0.21-3.12-0.63-4.27c-0.78-2.63-2.23-4.57-4.33-5.83v-10.35
				c2.95,0.44,5.54,1.74,7.77,3.9c2.23,2.16,3.94,4.67,5.15,7.51c1.08,2.52,1.63,5.53,1.63,9.03c0,6.57-2.24,11.97-6.73,16.22
				c-4.48,4.24-10.25,6.36-17.29,6.36c-7.1,0-12.88-2.04-17.34-6.12C1113.81,265.8,1111.58,260.58,1111.58,254.23z M1120.52,254.23
				c0,2.74,0.78,5.06,2.35,6.98c1.57,1.92,3.79,3.23,6.68,3.94v-21.68c-2.89,0.77-5.12,2.08-6.68,3.94
				C1121.3,249.28,1120.52,251.55,1120.52,254.23z"/>
			<path class="st5" d="M1158.45,162.61l-13.18,5.34v29.39l13.18,5.34v11.08l-64.39-26.19v-10.43l64.39-26.27V162.61z
				 M1134.79,193.15v-21.02l-25.92,10.51L1134.79,193.15z"/>
		</g>
	</g>
	<g>
		<path class="st3" d="M1933.47,553.43l-37.36-95.74h-238.26l-37.36,95.74h-120.54L1719.17,0h122.66l218.52,553.43H1933.47z
			 M1700.85,347.16h152.26l-76.13-195.38L1700.85,347.16z"/>
		<path class="st3" d="M2343.74,553.43v-59.16c-9.87,21.28-26.08,37.88-48.64,49.82c-22.56,11.93-45.59,17.9-69.08,17.9
			c-51.23,0-91.64-20.63-121.25-61.89c-29.61-41.25-44.41-90.68-44.41-148.28c0-58.64,15.04-108.2,45.12-148.67
			c30.07-40.48,70.49-60.72,121.24-60.72c44.64,0,79.89,16.1,105.74,48.26c5.17,7.28,8.46,12.46,9.87,15.57v-56.05h114.2v403.21
			H2343.74z M2343.74,351.83c0-29.06-7.4-53.32-22.21-72.78c-14.81-19.46-35.14-29.19-60.98-29.19c-18.33,0-34.67,5.59-48.99,16.73
			c-14.34,11.17-24.09,26.08-29.26,44.76c-4.23,12.46-6.34,25.95-6.34,40.48c0,14.53,2.11,28.02,6.34,40.48
			c5.17,18.68,15.04,33.6,29.61,44.75c14.56,11.16,30.77,16.73,48.64,16.73c25.38,0,45.58-9.85,60.62-29.58
			C2336.21,404.5,2343.74,380.37,2343.74,351.83z"/>
		<line class="st4" x1="1499.94" y1="619.12" x2="2456.52" y2="619.12"/>
		<polygon class="st4" points="1499.94,619.31 1527.05,626.91 1527.05,611.45 		"/>
		<polygon class="st4" points="2456.52,619.18 2429.42,626.79 2429.42,611.32 		"/>
		<line class="st4" x1="1498.89" y1="620.18" x2="2455.46" y2="620.18"/>
		<polygon class="st4" points="1498.89,620.37 1525.99,627.97 1525.99,612.5 		"/>
		<polygon class="st4" points="2455.46,620.24 2428.36,627.85 2428.36,612.38 		"/>
		<g>
			<path class="st5" d="M2502.17,527.86c0,1.33,0.11,2.62,0.32,3.87c0.21,1.25,0.57,2.55,1.09,3.91c0.51,1.36,1.31,2.46,2.4,3.29
				c1.09,0.83,2.38,1.25,3.89,1.25c4.1,0,6.67-3.22,7.69-9.66c0.48-4.39,0.88-7.86,1.18-10.41c1.33-13.94,7.9-20.9,19.73-20.9
				c3.62,0,6.79,0.75,9.5,2.25c2.72,1.5,4.81,3.51,6.29,6.04c1.48,2.53,2.55,5.19,3.21,8c0.66,2.8,1,5.76,1,8.87
				c0,7.16-1.58,13.35-4.75,18.57c-3.17,5.22-8.19,8.72-15.07,10.49v-11.91c2.72-1.11,4.8-2.83,6.25-5.16
				c2.17-2.83,3.26-6.83,3.26-11.99c0-1.44-0.12-2.89-0.36-4.33c-0.24-1.44-0.66-2.91-1.27-4.41c-0.6-1.5-1.52-2.71-2.76-3.62
				c-1.24-0.92-2.73-1.37-4.48-1.37c-3.08,0-5.23,0.9-6.47,2.71c-1.24,1.8-2.07,4.32-2.49,7.54l-1.18,10.49
				c-0.54,5.72-2.38,10.51-5.52,14.37c-3.14,3.86-7.6,5.79-13.39,5.79c-3.32,0-6.21-0.72-8.69-2.17c-2.47-1.44-4.39-3.36-5.75-5.75
				c-1.36-2.39-2.35-4.9-2.99-7.54c-0.63-2.64-0.95-5.37-0.95-8.2c0-12.16,3.86-20.43,11.58-24.82c2.17-1.22,4.25-2.03,6.24-2.42
				v11.41c-2.65,1.39-4.57,3.54-5.75,6.45C2502.76,521.41,2502.17,524.53,2502.17,527.86z"/>
			<path class="st5" d="M2546.97,458.99h10.32v11.66c0,9.72-4.98,14.57-14.93,14.57h-21v11.58h-9.87v-11.58h-18.46v-10.66h18.46
				v-15.57h9.87v15.57h17.47c3.02,0,5.13-0.55,6.34-1.67c1.21-1.11,1.81-3.05,1.81-5.83V458.99z"/>
			<path class="st5" d="M2511.49,410.52l65.07,25.98v10.66l-20.09-8l-44.98,18.99v-11.99l31.13-12.41l-31.13-12.41V410.52z"/>
			<path class="st5" d="M2533.21,396.02h24.07v10.58h-45.8v-10.58h7.69c-2.78-1.11-4.8-2.9-6.06-5.37c-1.27-2.47-1.9-5.23-1.9-8.29
				v-9.83h11.49v11.24c0,4,0.74,7.04,2.22,9.12C2526.41,394.98,2529.17,396.02,2533.21,396.02z"/>
			<path class="st5" d="M2510.32,348.39c0-6.77,2.31-12.14,6.92-16.12c4.62-3.97,10.54-5.95,17.78-5.95h1.27v33.48
				c3.62-0.17,6.62-1.42,9.01-3.75c2.38-2.33,3.57-5.16,3.57-8.49c0-1.72-0.21-3.16-0.63-4.33c-0.78-2.66-2.23-4.64-4.34-5.91
				v-10.49c2.96,0.45,5.55,1.76,7.78,3.96c2.23,2.19,3.95,4.73,5.16,7.62c1.09,2.55,1.63,5.61,1.63,9.16
				c0,6.66-2.25,12.15-6.74,16.45c-4.49,4.3-10.27,6.45-17.33,6.45c-7.12,0-12.91-2.07-17.38-6.2
				C2512.55,360.12,2510.32,354.83,2510.32,348.39z M2519.28,348.39c0,2.78,0.78,5.14,2.35,7.08c1.57,1.94,3.8,3.28,6.7,4v-21.99
				c-2.9,0.78-5.13,2.11-6.7,4C2520.06,343.36,2519.28,345.67,2519.28,348.39z"/>
			<path class="st5" d="M2532.85,309.24h24.44v10.58h-45.8v-10.58h7.69c-2.65-1.33-4.77-3.28-6.34-5.83
				c-1.57-2.55-2.35-5.27-2.35-8.16c0-5.38,1.9-9.66,5.7-12.83c3.8-3.16,8.6-4.75,14.39-4.75h26.7v10.74h-24.44
				c-3.62,0-6.53,0.9-8.73,2.71c-2.2,1.8-3.3,4.32-3.3,7.54c0,3.22,1.12,5.79,3.35,7.7C2526.4,308.28,2529.29,309.24,2532.85,309.24
				z"/>
			<path class="st5" d="M2510.32,249.36c0-6.77,2.31-12.14,6.92-16.12c4.62-3.97,10.54-5.95,17.78-5.95h1.27v33.48
				c3.62-0.17,6.62-1.42,9.01-3.75c2.38-2.33,3.57-5.16,3.57-8.49c0-1.72-0.21-3.16-0.63-4.33c-0.78-2.67-2.23-4.64-4.34-5.91
				v-10.49c2.96,0.45,5.55,1.76,7.78,3.96c2.23,2.19,3.95,4.73,5.16,7.62c1.09,2.55,1.63,5.61,1.63,9.16
				c0,6.66-2.25,12.15-6.74,16.45c-4.49,4.3-10.27,6.45-17.33,6.45c-7.12,0-12.91-2.07-17.38-6.2
				C2512.55,261.09,2510.32,255.8,2510.32,249.36z M2519.28,249.36c0,2.78,0.78,5.14,2.35,7.08c1.57,1.94,3.8,3.28,6.7,4v-21.99
				c-2.9,0.78-5.13,2.11-6.7,4C2520.06,244.34,2519.28,246.64,2519.28,249.36z"/>
			<path class="st5" d="M2557.29,202.22h-64.26v-31.65c0-5.77,1.39-10.52,4.16-14.24c2.78-3.72,7.18-5.58,13.21-5.58
				c5.01,0,8.75,1.86,11.22,5.58c0.6,0.83,1.21,1.94,1.81,3.33c1.03-3.16,2.96-5.66,5.79-7.5c2.84-1.83,6.06-2.75,9.68-2.75
				c6.34,0,10.98,1.93,13.94,5.79c2.96,3.86,4.43,8.82,4.43,14.87V202.22z M2503.35,171.83v19.41h15.75v-19.41
				c0-6.38-2.62-9.58-7.87-9.58C2505.97,162.25,2503.35,165.44,2503.35,171.83z M2529.32,171.41v19.82h17.65v-19.82
				c0-7.05-2.96-10.58-8.87-10.58C2532.25,160.83,2529.32,164.36,2529.32,171.41z"/>
		</g>
	</g>
</g>
</svg>
